<?xml version="1.0" standalone="no"?>
<svg
  width="600"
  height="600"
  viewBox="0 0 600 600"
  xmlns="http://www.w3.org/2000/svg"
>
  <g transform="translate(300,300)">
    <path d="M141.7,-215.5C185.4,-192.4,223.7,-156,242.5,-111.7C261.4,-67.3,260.9,-14.9,249.3,32.8C237.8,80.6,215.3,123.8,183.8,158.2C152.3,192.6,111.9,218.1,66.6,235.4C21.2,252.7,-29.1,261.6,-68.7,245C-108.4,228.4,-137.3,186.2,-169.6,147.7C-201.9,109.1,-237.5,74.2,-253.7,30.2C-269.8,-13.8,-266.3,-66.9,-244.7,-110.6C-223,-154.3,-183.1,-188.6,-139.3,-211.6C-95.5,-234.6,-47.8,-246.3,0.6,-247.3C49,-248.3,98,-238.5,141.7,-215.5Z" fill="#f2f2f2" />
  </g>
</svg>
  